HIERARCHY
ROOT Hips
{
    OFFSET 0.000000 0.000000 0.000000
    CHANNELS 6 Xposition Yposition Zposition Zrotation Xrotation Yrotation
    JOINT Spine
    {
        OFFSET -0.000000 14.517291 0.000000
        CHANNELS 3 Zrotation Xrotation Yrotation
        JOINT Spine1
        {
            OFFSET -0.000000 37.558300 0.000000
            CHANNELS 3 Zrotation Xrotation Yrotation
            JOINT Neck
            {
                OFFSET -0.000000 37.404057 3.400369
                CHANNELS 3 Zrotation Xrotation Yrotation
                JOINT Head
                {
                    OFFSET -0.000000 24.785618 -3.540803
                    CHANNELS 3 Zrotation Xrotation Yrotation
                    End Site
                    {
                        OFFSET -0.000000 35.408028 0.000000
                    }
                }
            }
            JOINT LeftShoulder
            {
                OFFSET 6.992933 33.973492 -0.192664
                CHANNELS 3 Zrotation Xrotation Yrotation
                JOINT LeftArm
                {
                    OFFSET 21.527611 0.000000 0.000000
                    CHANNELS 3 Zrotation Xrotation Yrotation
                    JOINT LeftForeArm
                    {
                        OFFSET 56.353916 0.000000 0.000000
                        CHANNELS 3 Zrotation Xrotation Yrotation
                        JOINT LeftHand
                        {
                            OFFSET 47.774071 0.000000 0.000000
                            CHANNELS 3 Zrotation Xrotation Yrotation
                            End Site
                            {
                                OFFSET 26.556021 0.000000 0.000000
                            }
                        }
                    }
                }
            }
            JOINT RightShoulder
            {
                OFFSET -7.065357 33.973492 -0.192664
                CHANNELS 3 Zrotation Xrotation Yrotation
                JOINT RightArm
                {
                    OFFSET -21.527611 0.000000 0.000000
                    CHANNELS 3 Zrotation Xrotation Yrotation
                    JOINT RightForeArm
                    {
                        OFFSET -56.353916 0.000000 0.000000
                        CHANNELS 3 Zrotation Xrotation Yrotation
                        JOINT RightHand
                        {
                            OFFSET -47.774071 0.000000 0.000000
                            CHANNELS 3 Zrotation Xrotation Yrotation
                            End Site
                            {
                                OFFSET -26.556021 0.000000 0.000000
                            }
                        }
                    }
                }
            }
        }
    }
    JOINT LeftUpLeg
    {
        OFFSET 17.704014 0.000000 0.000000
        CHANNELS 3 Zrotation Xrotation Yrotation
        JOINT LeftLeg
        {
            OFFSET -0.000000 -81.181816 0.000000
            CHANNELS 3 Zrotation Xrotation Yrotation
            JOINT LeftFoot
            {
                OFFSET -0.000000 -62.821102 0.000000
                CHANNELS 3 Zrotation Xrotation Yrotation
                JOINT LeftToeBase
                {
                    OFFSET -0.000000 -11.507608 26.556021
                    CHANNELS 3 Zrotation Xrotation Yrotation
                    End Site
                    {
                        OFFSET -0.000000 0.000000 7.081605
                    }
                }
            }
        }
    }
    JOINT RightUpLeg
    {
        OFFSET -17.704014 0.000000 0.000000
        CHANNELS 3 Zrotation Xrotation Yrotation
        JOINT RightLeg
        {
            OFFSET -0.000000 -81.181816 0.000000
            CHANNELS 3 Zrotation Xrotation Yrotation
            JOINT RightFoot
            {
                OFFSET -0.000000 -62.821102 0.000000
                CHANNELS 3 Zrotation Xrotation Yrotation
                JOINT RightToeBase
                {
                    OFFSET -0.000000 -11.507608 26.556021
                    CHANNELS 3 Zrotation Xrotation Yrotation
                    End Site
                    {
                        OFFSET -0.000000 0.000000 7.081605
                    }
                }
            }
        }
    }
}
MOTION
Frames:    8
Frame Time:    0.008333
-11.171288    155.391357    -0.227222    -4.298244    -1.756162    43.931728    3.020144    -0.528988    18.698721    -5.518848    -2.158383    6.124216    0.238695    -1.593660    -1.211395    8.571786    3.979982    -0.367262    3.601515    -0.045821    0.148722    -47.361660    16.271009    -42.521130    -15.640233    6.487950    -136.088791    3.303922    -32.343494    -1.688075    -19.004904    6.904268    2.339631    14.245584    9.613703    27.476259    -23.081022    -37.070053    -12.026778    15.359633    -34.986996    36.115360    -2.264548    -34.023830    -36.340427    -9.972277    23.537838    -28.626556    -11.183732    4.655080    25.499447    0.000000    0.000000    0.000000    9.303193    10.235897    -25.136381    4.601019    31.272160    -3.268672    17.239357    -3.352962    5.667655    0.000000    0.000000    0.000000    
-11.152560    155.397430    -0.236948    -4.293812    -1.748129    43.927639    3.019490    -0.509051    18.700371    -5.503564    -2.174110    6.124483    0.254215    -1.603756    -1.228386    8.516323    4.023856    -0.396803    3.622040    -0.040970    0.137133    -47.386452    16.279081    -42.528316    -15.643806    6.486278    -136.085464    3.300953    -32.350441    -1.693882    -18.994661    6.890184    2.358191    14.236809    9.618030    27.428856    -23.090622    -37.069389    -12.043605    15.284739    -35.017979    36.053322    -2.278233    -34.019386    -36.326595    -9.963119    23.528418    -28.650997    -11.140931    4.707724    25.481964    0.000000    0.000000    0.000000    9.263473    10.278709    -25.113089    4.583345    31.217327    -3.283535    17.152092    -3.469806    5.893165    0.000000    0.000000    0.000000    
-11.133876    155.396561    -0.245009    -4.286492    -1.742333    43.931351    3.033206    -0.485046    18.703539    -5.507740    -2.179057    6.125410    0.250835    -1.602249    -1.253075    8.492359    4.035625    -0.425460    3.641041    -0.043988    0.128938    -47.380852    16.294600    -42.540794    -15.634890    6.454669    -136.086792    3.319538    -32.357281    -1.686116    -18.989586    6.885759    2.366104    14.205643    9.719303    27.376436    -23.166332    -37.135647    -12.081269    15.297847    -35.098766    36.027386    -2.299217    -34.014000    -36.330185    -9.967172    23.524652    -28.658638    -11.079671    4.755866    25.469603    0.000000    0.000000    0.000000    9.225536    10.330063    -25.124664    4.570864    31.146095    -3.259388    17.400473    -3.437772    5.966039    0.000000    0.000000    0.000000    
-11.111345    155.388947    -0.254150    -4.279634    -1.737538    43.940422    3.047088    -0.464805    18.710297    -5.503734    -2.184353    6.127644    0.271327    -1.572280    -1.271864    8.428686    4.007012    -0.453084    3.654912    -0.045532    0.103762    -47.373917    16.308971    -42.538788    -15.635220    6.422669    -136.084961    3.319389    -32.383389    -1.683332    -18.986967    6.871107    2.385294    14.188378    9.754875    27.302465    -23.184605    -37.143105    -12.100720    15.276585    -35.120182    36.002480    -2.323339    -34.006638    -36.322327    -9.962494    23.525240    -28.723862    -11.035951    4.763831    25.504490    0.000000    0.000000    0.000000    9.187930    10.381124    -25.186619    4.543455    31.085260    -3.197306    17.572828    -3.412408    6.066681    0.000000    0.000000    0.000000    
-11.093694    155.380447    -0.264321    -4.277972    -1.731677    43.950935    3.058010    -0.445108    18.716780    -5.494479    -2.188605    6.129937    0.264730    -1.580490    -1.300255    8.402531    4.024543    -0.485749    3.667452    -0.042302    0.099770    -47.365463    16.302654    -42.558186    -15.648172    6.432147    -136.069016    3.333182    -32.392120    -1.691974    -18.990166    6.857674    2.386187    14.172060    9.759870    27.245718    -23.185343    -37.157520    -12.106091    15.304480    -35.128738    35.999714    -2.349718    -34.005733    -36.319469    -9.950350    23.536003    -28.774805    -10.979245    4.773085    25.515596    0.000000    0.000000    0.000000    9.157033    10.423343    -25.242409    4.527895    31.031511    -3.120514    17.705418    -3.396932    6.126623    0.000000    0.000000    0.000000    
-11.078303    155.365891    -0.280067    -4.287676    -1.719082    43.972122    3.075224    -0.438669    18.720331    -5.482139    -2.195729    6.131048    0.247390    -1.543284    -1.331698    8.386827    3.986154    -0.514447    3.667629    -0.041622    0.079621    -47.351219    16.288408    -42.554066    -15.661931    6.444350    -136.051666    3.339194    -32.398651    -1.686933    -19.002930    6.834037    2.397359    14.147310    9.868937    27.162970    -23.226254    -37.193439    -12.142701    14.986355    -35.294182    35.726036    -2.378669    -34.018982    -36.332649    -9.954979    23.543659    -28.788544    -10.899570    4.789885    25.516739    0.000000    0.000000    0.000000    9.126502    10.447366    -25.281012    4.550469    30.988068    -3.063038    17.757919    -3.406273    6.167614    0.000000    0.000000    0.000000    
-11.067327    155.352524    -0.290290    -4.306025    -1.710210    43.992455    3.089944    -0.439185    18.724192    -5.456708    -2.199438    6.132617    0.231827    -1.522530    -1.359363    8.375120    3.954510    -0.539673    3.668199    -0.038063    0.072844    -47.334408    16.279152    -42.552647    -15.672009    6.452675    -136.034866    3.317358    -32.400085    -1.697022    -19.009459    6.828234    2.394591    14.104448    9.990575    27.106407    -23.304802    -37.256893    -12.172386    15.045786    -35.352318    35.751747    -2.351257    -34.003723    -36.304317    -9.890141    23.399485    -28.988033    -10.993849    4.833910    25.528418    0.000000    0.000000    0.000000    9.123306    10.457658    -25.302721    4.560150    30.955530    -3.001459    17.802923    -3.446520    6.171298    0.000000    0.000000    0.000000    
-11.058700    155.337006    -0.304862    -4.325088    -1.699559    44.019947    3.107522    -0.437972    18.720312    -5.446806    -2.200509    6.131457    0.215974    -1.508034    -1.381743    8.391950    3.923860    -0.556334    3.679462    -0.042667    0.069695    -47.343334    16.248917    -42.541786    -15.705507    6.518222    -136.012924    3.359223    -32.404449    -1.676340    -19.001692    6.809226    2.387201    14.067630    10.081490    27.060707    -23.368845    -37.289101    -12.203250    15.094304    -35.382282    35.761398    -2.371381    -34.015202    -36.293648    -9.875149    23.393551    -29.021883    -10.929859    4.839887    25.523087    0.000000    0.000000    0.000000    9.122186    10.455867    -25.297630    4.602637    30.934193    -3.009583    17.824263    -3.484183    6.159760    0.000000    0.000000    0.000000    
